<svg xmlns="http://www.w3.org/2000/svg" width="16" height="16" viewBox="0 0 16 16"><path fill="#FF4B00" d="m14.78 9.771-1.074-1.168-1.3.522-2.12 2.776.345 1.686.91.39a6.927 6.927 0 0 0 3.24-4.206z"/><path fill="#FF9F00" d="m11.453 14.035-1.237-2.143-3.464.449-1.156 1.067.503 1.367c1.912.44 3.811.151 5.354-.74z"/><path fill="#6B0" d="m6.82 12.359-2.777-2.12-1.708-.386-.435 1.623c.891 1.543 2.371 2.82 4.197 3.309l.655-2.444.067.018z"/><path fill="#00CC71" d="m4.046 10.229-.449-3.464L2.52 5.606l-1.299.522c-.492 1.835-.133 3.743.767 5.289l2.058-1.188z"/><path fill="#0095FF" d="m5.697 4.066.42-1.565-1.655-.588c-1.543.891-2.82 2.371-3.308 4.197l2.443.655 2.1-2.699z"/><path fill="#6B77E8" d="m9.164 3.608 1.12-.932-.486-1.435C7.963.75 6.055 1.108 4.51 2.01l1.238 2.143 3.417-.544z"/><path fill="#B760EA" d="m13.538 5.442.475-.96c-.891-1.543-2.371-2.82-4.197-3.308l-.655 2.443 2.776 2.121 1.601-.296z"/><path fill="#FF193D" d="m12.336 9.116 2.444.655c.492-1.835.133-3.743-.767-5.289L11.87 5.72c.612.961.795 2.17.466 3.396z"/><path fill="#FF7816" d="M12.336 9.116 11.34 7.97l-1.434.486-.99 1.256.396 1.773.842.37c1.094-.565 1.857-1.52 2.183-2.738z"/><path fill="#FDBF00" d="M10.218 11.883 8.981 9.739l-1.583.228-1.101.865.467 1.502c1.272.351 2.49.17 3.454-.451z"/><path fill="#7D0" d="m7.456 9.983-1.257-.99-1.069-.068-1.074 1.306a4.517 4.517 0 0 0 2.775 2.12l.635-2.366z"/><path fill="#00DD7B" d="M6.199 8.994 5.971 7.41 4.964 6.26l-1.367.504a4.517 4.517 0 0 0 .449 3.464l2.153-1.235z"/><path fill="#3AAAFF" d="m6.963 6.144.317-1.726L5.725 4a4.517 4.517 0 0 0-2.12 2.776l2.376.636.982-1.269z"/><path fill="#7984EB" d="m8.527 5.984 1.102-.865-.468-1.502a4.517 4.517 0 0 0-3.464.45l1.247 2.145 1.583-.228z"/><path fill="#CB75F6" d="m11.453 7.275.435-1.623a4.517 4.517 0 0 0-2.776-2.12l-.637 2.376 1.257.989 1.72.378z"/><path fill="#FF4949" d="M11.87 5.72 9.726 6.957l.228 1.583 2.377.637c.334-1.287.15-2.496-.461-3.457z"/><path fill="#FF9F00" d="M9.039 9.755c.428-.248.844-.716.989-1.257l-.592-1.039-1.434.486.278 1.668.759.142z"/><path fill="#FFD400" d="M7.456 9.983c.54.145 1.068.069 1.583-.228l-1.04-1.8-1.155 1.067.612.96z"/><path fill="#89F900" d="M6.199 8.994c.247.428.716.844 1.257.989l.546-2.038-1.669.277-.134.772z"/><path fill="#00EE84" d="m8 7.954-.862-1.11-1.097.575c-.145.541-.069 1.069.228 1.583L8 7.954z"/><path fill="#73BCFF" d="M8 7.954 7.92 6.63l-.957-.485c-.43.248-.845.716-.99 1.257L8 7.954z"/><path fill="#979FEF" d="M8.527 5.984c-.54-.145-1.068-.069-1.583.228l1.04 1.8.732-1.108-.189-.92z"/><path fill="#DA90F8" d="M9.802 6.905c-.247-.428-.716-.844-1.257-.989l-.527 1.97 1.325-.079.46-.902z"/><path fill="#FF6C6C" d="M9.96 8.48c.145-.541.07-1.069-.228-1.583l-1.8 1.04 2.028.543z"/></svg>